<mxfile host="65bd71144e">
    <diagram id="fPVhCgUPwkcJ8RrVNHGj" name="Page-1">
        <mxGraphModel dx="6170" dy="1985" grid="1" gridSize="10" guides="1" tooltips="1" connect="1" arrows="1" fold="1" page="1" pageScale="1" pageWidth="850" pageHeight="1100" math="0" shadow="0">
            <root>
                <mxCell id="0"/>
                <mxCell id="1" parent="0"/>
                <mxCell id="461" value="&lt;h1&gt;&lt;span style=&quot;font-family: &amp;#34;verdana&amp;#34;&quot;&gt;User Backend&lt;/span&gt;&lt;/h1&gt;" style="rounded=0;whiteSpace=wrap;html=1;fillColor=#000000;fontColor=#ffffff;strokeColor=none;shadow=0;glass=0;sketch=0;verticalAlign=top;" vertex="1" parent="1">
                    <mxGeometry x="-310" y="2840" width="2040" height="850" as="geometry"/>
                </mxCell>
                <mxCell id="322" value="&lt;h1&gt;&lt;span style=&quot;font-family: &amp;#34;verdana&amp;#34;&quot;&gt;Dev Backend&lt;/span&gt;&lt;/h1&gt;" style="rounded=0;whiteSpace=wrap;html=1;fillColor=#000000;fontColor=#ffffff;strokeColor=none;shadow=0;glass=0;sketch=0;verticalAlign=top;" vertex="1" parent="1">
                    <mxGeometry x="100" y="1950" width="1450" height="880" as="geometry"/>
                </mxCell>
                <mxCell id="317" value="&lt;font face=&quot;Verdana&quot;&gt;Gulesider.no&lt;/font&gt;" style="rounded=0;whiteSpace=wrap;html=1;fillColor=#FFE001;strokeColor=none;shadow=0;fontColor=#000000;" vertex="1" parent="1">
                    <mxGeometry x="120" y="2197.5" width="120" height="60" as="geometry"/>
                </mxCell>
                <mxCell id="318" value="&lt;span style=&quot;font-family: &amp;#34;verdana&amp;#34;&quot;&gt;1881.no&lt;br&gt;&lt;/span&gt;" style="rounded=0;whiteSpace=wrap;html=1;fillColor=#8BC1FF;strokeColor=none;shadow=0;fontColor=#ffffff;gradientColor=none;" vertex="1" parent="1">
                    <mxGeometry x="120" y="2267.5" width="120" height="60" as="geometry"/>
                </mxCell>
                <mxCell id="319" value="&lt;span style=&quot;font-family: &amp;#34;verdana&amp;#34;&quot;&gt;Proff.no&lt;/span&gt;" style="rounded=0;whiteSpace=wrap;html=1;fillColor=#7E4282;fontColor=#ffffff;strokeColor=none;shadow=0;" vertex="1" parent="1">
                    <mxGeometry x="120" y="2337.5" width="120" height="60" as="geometry"/>
                </mxCell>
                <mxCell id="320" value="&lt;span style=&quot;font-family: &amp;#34;verdana&amp;#34;&quot;&gt;Google.com&lt;/span&gt;" style="rounded=0;whiteSpace=wrap;html=1;fillColor=#DB4437;fontColor=#ffffff;strokeColor=none;shadow=0;glass=0;sketch=0;" vertex="1" parent="1">
                    <mxGeometry x="1400" y="2703.75" width="120" height="60" as="geometry"/>
                </mxCell>
                <mxCell id="321" value="&lt;font face=&quot;verdana&quot; color=&quot;#000000&quot;&gt;Brønnøysundregistrene&lt;br&gt;(brreg.no)&lt;br&gt;&lt;/font&gt;" style="rounded=0;whiteSpace=wrap;html=1;fillColor=#FAFAFA;fontColor=#ffffff;strokeColor=none;shadow=0;" vertex="1" parent="1">
                    <mxGeometry x="120" y="1980" width="170" height="60" as="geometry"/>
                </mxCell>
                <mxCell id="323" value="&lt;font color=&quot;#45cecc&quot; face=&quot;Verdana&quot;&gt;&lt;b&gt;ProSpector&lt;/b&gt;&lt;/font&gt;" style="rounded=0;whiteSpace=wrap;html=1;fillColor=#1e2227;fontColor=#ffffff;strokeColor=#45CECC;shadow=0;verticalAlign=top;" vertex="1" parent="1">
                    <mxGeometry x="340" y="2180" width="220" height="170" as="geometry"/>
                </mxCell>
                <mxCell id="324" value="SQL (PostgreSQL)" style="swimlane;rounded=0;shadow=0;glass=0;sketch=0;fontFamily=Verdana;fontColor=#FFFFFF;strokeColor=default;fillColor=#336791;gradientColor=none;gradientDirection=east;startSize=23;swimlaneFillColor=none;swimlaneLine=0;" vertex="1" parent="1">
                    <mxGeometry x="680" y="2040" width="250" height="730" as="geometry">
                        <mxRectangle x="560" y="70" width="150" height="23" as="alternateBounds"/>
                    </mxGeometry>
                </mxCell>
                <mxCell id="337" value="&lt;h3&gt;&lt;b&gt;&lt;font face=&quot;Verdana&quot; color=&quot;#ffffff&quot;&gt;Brønnøysund Tables&lt;/font&gt;&lt;/b&gt;&lt;/h3&gt;" style="rounded=0;whiteSpace=wrap;html=1;fillColor=#3D454F;strokeColor=none;shadow=0;fontColor=#000000;verticalAlign=top;" vertex="1" parent="324">
                    <mxGeometry x="30" y="40" width="190" height="100" as="geometry"/>
                </mxCell>
                <mxCell id="338" value="&lt;font face=&quot;verdana&quot;&gt;Norwegian Businesses&lt;/font&gt;" style="rounded=0;whiteSpace=wrap;html=1;fillColor=#FFFFFF;strokeColor=none;shadow=0;fontColor=#000000;horizontal=1;verticalAlign=middle;" vertex="1" parent="324">
                    <mxGeometry x="40" y="90" width="170" height="40" as="geometry"/>
                </mxCell>
                <mxCell id="380" value="&lt;h3&gt;&lt;b&gt;&lt;font face=&quot;Verdana&quot; color=&quot;#ffffff&quot;&gt;Industries&lt;/font&gt;&lt;/b&gt;&lt;/h3&gt;" style="rounded=0;whiteSpace=wrap;html=1;fillColor=#3D454F;strokeColor=none;shadow=0;fontColor=#000000;verticalAlign=top;" vertex="1" parent="324">
                    <mxGeometry x="30" y="170" width="190" height="200" as="geometry"/>
                </mxCell>
                <mxCell id="382" value="&lt;span style=&quot;font-family: &amp;#34;verdana&amp;#34;&quot;&gt;Industries:&amp;nbsp;&lt;/span&gt;&lt;span style=&quot;font-family: &amp;#34;verdana&amp;#34;&quot;&gt;Gulesider&lt;/span&gt;" style="rounded=0;whiteSpace=wrap;html=1;fillColor=#FFE101;strokeColor=none;shadow=0;fontColor=#000000;horizontal=1;verticalAlign=middle;" vertex="1" parent="324">
                    <mxGeometry x="40" y="220" width="170" height="40" as="geometry"/>
                </mxCell>
                <mxCell id="383" value="&lt;font color=&quot;#000000&quot;&gt;&lt;span style=&quot;font-family: &amp;#34;verdana&amp;#34;&quot;&gt;Industries:&amp;nbsp;&lt;/span&gt;&lt;font face=&quot;verdana&quot;&gt;1881&lt;/font&gt;&lt;/font&gt;" style="rounded=0;whiteSpace=wrap;html=1;fillColor=#8BC1FF;strokeColor=none;shadow=0;fontColor=#FFFFFF;horizontal=1;verticalAlign=middle;" vertex="1" parent="324">
                    <mxGeometry x="40" y="270" width="170" height="40" as="geometry"/>
                </mxCell>
                <mxCell id="384" value="&lt;span style=&quot;font-family: &amp;quot;verdana&amp;quot;&quot;&gt;Industries:&amp;nbsp;&lt;/span&gt;&lt;font face=&quot;verdana&quot;&gt;Proff&lt;/font&gt;" style="rounded=0;whiteSpace=wrap;html=1;fillColor=#7E4282;strokeColor=none;shadow=0;fontColor=#FFFFFF;horizontal=1;verticalAlign=middle;gradientColor=none;" vertex="1" parent="324">
                    <mxGeometry x="40" y="320" width="170" height="40" as="geometry"/>
                </mxCell>
                <mxCell id="385" value="&lt;h3&gt;&lt;font color=&quot;#ffffff&quot; face=&quot;Verdana&quot;&gt;prospects&lt;/font&gt;&lt;/h3&gt;" style="rounded=0;whiteSpace=wrap;html=1;fillColor=#3D454F;strokeColor=none;shadow=0;fontColor=#000000;verticalAlign=top;" vertex="1" parent="324">
                    <mxGeometry x="30" y="390" width="190" height="200" as="geometry"/>
                </mxCell>
                <mxCell id="386" value="&lt;span style=&quot;font-family: &amp;#34;verdana&amp;#34;&quot;&gt;Prospects: Gulesider&lt;/span&gt;" style="rounded=0;whiteSpace=wrap;html=1;fillColor=#FFE101;strokeColor=none;shadow=0;fontColor=#000000;horizontal=1;verticalAlign=middle;" vertex="1" parent="324">
                    <mxGeometry x="40" y="440" width="170" height="40" as="geometry"/>
                </mxCell>
                <mxCell id="387" value="&lt;span style=&quot;color: rgb(0 , 0 , 0) ; font-family: &amp;#34;verdana&amp;#34;&quot;&gt;Prospects: 1881&lt;/span&gt;" style="rounded=0;whiteSpace=wrap;html=1;fillColor=#8BC1FF;strokeColor=none;shadow=0;fontColor=#FFFFFF;horizontal=1;verticalAlign=middle;" vertex="1" parent="324">
                    <mxGeometry x="40" y="490" width="170" height="40" as="geometry"/>
                </mxCell>
                <mxCell id="388" value="&lt;span style=&quot;font-family: &amp;#34;verdana&amp;#34;&quot;&gt;Prospects: Proff&lt;/span&gt;" style="rounded=0;whiteSpace=wrap;html=1;fillColor=#7E4282;strokeColor=none;shadow=0;fontColor=#FFFFFF;horizontal=1;verticalAlign=middle;gradientColor=none;" vertex="1" parent="324">
                    <mxGeometry x="40" y="540" width="170" height="40" as="geometry"/>
                </mxCell>
                <mxCell id="402" value="&lt;h3&gt;&lt;b&gt;&lt;font face=&quot;Verdana&quot; color=&quot;#ffffff&quot;&gt;Google Table&lt;/font&gt;&lt;/b&gt;&lt;/h3&gt;" style="rounded=0;whiteSpace=wrap;html=1;fillColor=#AD362C;strokeColor=none;shadow=0;fontColor=#000000;verticalAlign=top;" vertex="1" parent="324">
                    <mxGeometry x="30" y="610" width="190" height="100" as="geometry"/>
                </mxCell>
                <mxCell id="404" value="&lt;font face=&quot;verdana&quot;&gt;Google: input table&lt;/font&gt;" style="rounded=0;whiteSpace=wrap;html=1;fillColor=#DB4437;strokeColor=none;shadow=0;fontColor=#FFFFFF;horizontal=1;verticalAlign=middle;" vertex="1" parent="324">
                    <mxGeometry x="40" y="660" width="170" height="40" as="geometry"/>
                </mxCell>
                <mxCell id="407" value="" style="edgeStyle=elbowEdgeStyle;elbow=horizontal;endArrow=classic;html=1;labelBorderColor=default;fontFamily=Verdana;fontSize=12;fontColor=#FFFFFF;strokeColor=#FFE001;" edge="1" parent="324">
                    <mxGeometry width="50" height="50" relative="1" as="geometry">
                        <mxPoint x="20" y="460" as="sourcePoint"/>
                        <mxPoint x="-110" y="530" as="targetPoint"/>
                        <Array as="points">
                            <mxPoint x="-50" y="530"/>
                            <mxPoint x="130" y="450"/>
                            <mxPoint x="100" y="510"/>
                        </Array>
                    </mxGeometry>
                </mxCell>
                <mxCell id="339" style="edgeStyle=none;html=1;fontFamily=Verdana;fontColor=#45CECC;strokeColor=#DB4437;" edge="1" parent="1">
                    <mxGeometry relative="1" as="geometry">
                        <mxPoint x="450" y="2640" as="sourcePoint"/>
                        <mxPoint x="700" y="2720" as="targetPoint"/>
                        <Array as="points">
                            <mxPoint x="450" y="2620"/>
                            <mxPoint x="450" y="2720"/>
                        </Array>
                    </mxGeometry>
                </mxCell>
                <mxCell id="341" value="&lt;font face=&quot;Verdana&quot;&gt;Backend&lt;/font&gt;" style="rounded=0;whiteSpace=wrap;html=1;fillColor=#1e2227;fontColor=#ffffff;strokeColor=none;shadow=0;verticalAlign=top;" vertex="1" parent="1">
                    <mxGeometry x="410" y="2207.5" width="70" height="30" as="geometry"/>
                </mxCell>
                <mxCell id="342" value="" style="rounded=0;whiteSpace=wrap;html=1;fillColor=#1e2227;fontColor=#ffffff;strokeColor=#FFFFFF;shadow=0;verticalAlign=top;" vertex="1" parent="1">
                    <mxGeometry x="350" y="2440" width="200" as="geometry"/>
                </mxCell>
                <mxCell id="343" value="" style="line;strokeWidth=1;html=1;rounded=0;shadow=0;glass=0;labelBackgroundColor=#CCE5FF;labelBorderColor=default;sketch=0;fontFamily=Verdana;fontColor=#FFFFFF;fillColor=#45CECC;gradientColor=none;gradientDirection=east;strokeColor=#FFFFFF;spacingTop=7;" vertex="1" parent="1">
                    <mxGeometry x="370" y="2200" width="160" height="10" as="geometry"/>
                </mxCell>
                <mxCell id="344" value="&lt;font face=&quot;Verdana&quot; style=&quot;font-size: 11px&quot;&gt;&amp;nbsp; Stage 1: &lt;br&gt;&lt;span style=&quot;white-space: pre&quot;&gt;&#9;&lt;/span&gt;Extract industries&lt;br&gt;&lt;span style=&quot;white-space: pre&quot;&gt;&#9;&lt;/span&gt;time: 00:00:14&lt;br&gt;&lt;/font&gt;" style="rounded=0;whiteSpace=wrap;html=1;fillColor=#3D454F;fontColor=#ffffff;strokeColor=none;shadow=0;verticalAlign=top;align=left;fontSize=11;" vertex="1" parent="1">
                    <mxGeometry x="380" y="2287.5" width="140" height="52.5" as="geometry"/>
                </mxCell>
                <mxCell id="345" style="edgeStyle=none;html=1;fontFamily=Verdana;fontColor=#45CECC;strokeColor=#FFE001;entryX=0;entryY=0.25;entryDx=0;entryDy=0;exitX=1;exitY=0.5;exitDx=0;exitDy=0;" edge="1" parent="1" source="317" target="344">
                    <mxGeometry relative="1" as="geometry">
                        <Array as="points">
                            <mxPoint x="320" y="2227.5"/>
                            <mxPoint x="320" y="2301"/>
                        </Array>
                        <mxPoint x="260" y="2206.5" as="sourcePoint"/>
                        <mxPoint x="370" y="2307.5" as="targetPoint"/>
                    </mxGeometry>
                </mxCell>
                <mxCell id="346" style="edgeStyle=none;html=1;fontFamily=Verdana;fontColor=#45CECC;strokeColor=#FFE001;exitX=1;exitY=0.25;exitDx=0;exitDy=0;" edge="1" parent="1" source="344">
                    <mxGeometry relative="1" as="geometry">
                        <mxPoint x="571.0999999999999" y="2169.64" as="sourcePoint"/>
                        <mxPoint x="700" y="2270" as="targetPoint"/>
                        <Array as="points">
                            <mxPoint x="660" y="2298"/>
                            <mxPoint x="660" y="2270"/>
                        </Array>
                    </mxGeometry>
                </mxCell>
                <mxCell id="347" style="edgeStyle=none;html=1;fontFamily=Verdana;fontColor=#45CECC;strokeColor=#DE75E6;exitX=1;exitY=0.75;exitDx=0;exitDy=0;" edge="1" parent="1" source="344">
                    <mxGeometry relative="1" as="geometry">
                        <mxPoint x="560" y="2220" as="sourcePoint"/>
                        <mxPoint x="700" y="2380" as="targetPoint"/>
                        <Array as="points">
                            <mxPoint x="650" y="2327"/>
                            <mxPoint x="650" y="2380"/>
                        </Array>
                    </mxGeometry>
                </mxCell>
                <mxCell id="348" style="edgeStyle=none;html=1;fontFamily=Verdana;fontColor=#45CECC;strokeColor=#8BC1FF;exitX=1;exitY=0.5;exitDx=0;exitDy=0;" edge="1" parent="1" source="344">
                    <mxGeometry relative="1" as="geometry">
                        <mxPoint x="559.9999999999998" y="2210" as="sourcePoint"/>
                        <mxPoint x="700" y="2330" as="targetPoint"/>
                        <Array as="points">
                            <mxPoint x="660" y="2314"/>
                            <mxPoint x="660" y="2330"/>
                        </Array>
                    </mxGeometry>
                </mxCell>
                <mxCell id="349" style="edgeStyle=none;html=1;fontFamily=Verdana;fontColor=#45CECC;strokeColor=#8BC1FF;entryX=0;entryY=0.5;entryDx=0;entryDy=0;exitX=1;exitY=0.5;exitDx=0;exitDy=0;" edge="1" parent="1" source="318" target="344">
                    <mxGeometry relative="1" as="geometry">
                        <Array as="points">
                            <mxPoint x="280" y="2297.5"/>
                            <mxPoint x="280" y="2314"/>
                        </Array>
                        <mxPoint x="240" y="2412.5" as="sourcePoint"/>
                        <mxPoint x="360" y="2307.5" as="targetPoint"/>
                    </mxGeometry>
                </mxCell>
                <mxCell id="350" style="edgeStyle=none;html=1;entryX=0;entryY=0.75;entryDx=0;entryDy=0;fontFamily=Verdana;fontColor=#45CECC;strokeColor=#DE75E6;exitX=1;exitY=0.5;exitDx=0;exitDy=0;" edge="1" parent="1" source="319" target="344">
                    <mxGeometry relative="1" as="geometry">
                        <Array as="points">
                            <mxPoint x="320" y="2367.5"/>
                            <mxPoint x="320" y="2327"/>
                        </Array>
                        <mxPoint x="240" y="2477.5" as="sourcePoint"/>
                        <mxPoint x="337.1399999999999" y="2378.68" as="targetPoint"/>
                    </mxGeometry>
                </mxCell>
                <mxCell id="351" value="&lt;font color=&quot;#45cecc&quot; face=&quot;Verdana&quot;&gt;&lt;b&gt;ProSpector&lt;/b&gt;&lt;/font&gt;" style="rounded=0;whiteSpace=wrap;html=1;fillColor=#1e2227;fontColor=#ffffff;strokeColor=#45CECC;shadow=0;verticalAlign=top;" vertex="1" parent="1">
                    <mxGeometry x="1070" y="2130" width="220" height="350" as="geometry"/>
                </mxCell>
                <mxCell id="352" value="&lt;font face=&quot;Verdana&quot;&gt;Backend&lt;/font&gt;" style="rounded=0;whiteSpace=wrap;html=1;fillColor=#1e2227;fontColor=#ffffff;strokeColor=none;shadow=0;verticalAlign=top;" vertex="1" parent="1">
                    <mxGeometry x="1080" y="2160" width="200" height="80" as="geometry"/>
                </mxCell>
                <mxCell id="353" value="" style="rounded=0;whiteSpace=wrap;html=1;fillColor=#1e2227;fontColor=#ffffff;strokeColor=#FFFFFF;shadow=0;verticalAlign=top;" vertex="1" parent="1">
                    <mxGeometry x="1080" y="2440" width="200" as="geometry"/>
                </mxCell>
                <mxCell id="354" value="&lt;font face=&quot;Verdana&quot;&gt;&amp;nbsp; Stage 2: &lt;br&gt;&amp;nbsp; &amp;nbsp;Extract payed entries&lt;br&gt;&lt;br&gt;&lt;br&gt;&lt;br&gt;&lt;br&gt;&lt;br&gt;&lt;br&gt;&lt;br&gt;&lt;br&gt;&lt;br&gt;&lt;br&gt;&lt;br&gt;&lt;br&gt;&lt;br&gt;&lt;br&gt;&lt;br&gt;&lt;br&gt;&amp;nbsp; &amp;nbsp;Tot. 00:13:58&lt;br&gt;&lt;/font&gt;" style="rounded=0;whiteSpace=wrap;html=1;fillColor=#3D454F;fontColor=#ffffff;strokeColor=none;shadow=0;verticalAlign=top;align=left;fontSize=11;" vertex="1" parent="1">
                    <mxGeometry x="1080" y="2197.5" width="200" height="272.5" as="geometry"/>
                </mxCell>
                <mxCell id="355" style="edgeStyle=none;html=1;entryX=0;entryY=0.5;entryDx=0;entryDy=0;fontFamily=Verdana;fontColor=#45CECC;strokeColor=default;" edge="1" parent="1">
                    <mxGeometry relative="1" as="geometry">
                        <Array as="points">
                            <mxPoint x="330" y="2010"/>
                            <mxPoint x="330" y="2258"/>
                        </Array>
                        <mxPoint x="290" y="2010" as="sourcePoint"/>
                        <mxPoint x="380" y="2257.5" as="targetPoint"/>
                    </mxGeometry>
                </mxCell>
                <mxCell id="356" style="edgeStyle=none;html=1;fontFamily=Verdana;fontColor=#45CECC;strokeColor=default;exitX=1;exitY=0.5;exitDx=0;exitDy=0;" edge="1" parent="1">
                    <mxGeometry relative="1" as="geometry">
                        <mxPoint x="700.0000000000005" y="2140" as="targetPoint"/>
                        <Array as="points">
                            <mxPoint x="640" y="2258"/>
                            <mxPoint x="640" y="2140"/>
                        </Array>
                        <mxPoint x="520" y="2257.5" as="sourcePoint"/>
                    </mxGeometry>
                </mxCell>
                <mxCell id="357" value="" style="line;strokeWidth=1;html=1;rounded=0;shadow=0;glass=0;labelBackgroundColor=#CCE5FF;labelBorderColor=default;sketch=0;fontFamily=Verdana;fontColor=#FFFFFF;fillColor=#45CECC;gradientColor=none;gradientDirection=east;strokeColor=#FFFFFF;spacingTop=7;" vertex="1" parent="1">
                    <mxGeometry x="1100" y="2150" width="160" height="10" as="geometry"/>
                </mxCell>
                <mxCell id="358" style="edgeStyle=none;html=1;labelBorderColor=default;fontFamily=Verdana;fontSize=11;fontColor=#FFFFFF;strokeColor=#FFE001;dashed=1;" edge="1" parent="1">
                    <mxGeometry relative="1" as="geometry">
                        <mxPoint x="910" y="2280" as="sourcePoint"/>
                        <Array as="points"/>
                        <mxPoint x="1090" y="2280" as="targetPoint"/>
                    </mxGeometry>
                </mxCell>
                <mxCell id="359" style="edgeStyle=none;html=1;labelBorderColor=default;fontFamily=Verdana;fontSize=11;fontColor=#FFFFFF;strokeColor=#8BC1FF;dashed=1;" edge="1" parent="1">
                    <mxGeometry relative="1" as="geometry">
                        <mxPoint x="910" y="2336" as="sourcePoint"/>
                        <mxPoint x="1090" y="2336" as="targetPoint"/>
                        <Array as="points"/>
                    </mxGeometry>
                </mxCell>
                <mxCell id="360" style="edgeStyle=none;html=1;labelBorderColor=default;fontFamily=Verdana;fontSize=11;fontColor=#FFFFFF;strokeColor=#DE75E6;dashed=1;" edge="1" parent="1">
                    <mxGeometry relative="1" as="geometry">
                        <mxPoint x="910" y="2383" as="sourcePoint"/>
                        <mxPoint x="1090" y="2383" as="targetPoint"/>
                        <Array as="points">
                            <mxPoint x="1020" y="2383"/>
                        </Array>
                    </mxGeometry>
                </mxCell>
                <mxCell id="362" style="edgeStyle=none;html=1;labelBorderColor=default;fontFamily=Verdana;fontSize=11;fontColor=#FFFFFF;strokeColor=#FFE001;dashed=1;" edge="1" parent="1">
                    <mxGeometry relative="1" as="geometry">
                        <mxPoint x="1270" y="2261" as="sourcePoint"/>
                        <mxPoint x="1370" y="2261" as="targetPoint"/>
                        <Array as="points"/>
                    </mxGeometry>
                </mxCell>
                <mxCell id="363" value="&lt;font face=&quot;Verdana&quot; style=&quot;font-size: 11px&quot;&gt;Extract gulesider&lt;br&gt;00:02:58&lt;br&gt;&lt;/font&gt;" style="rounded=0;whiteSpace=wrap;html=1;fillColor=none;fontColor=#ffffff;strokeColor=default;shadow=0;verticalAlign=middle;align=center;fontSize=11;" vertex="1" parent="1">
                    <mxGeometry x="1100" y="2247.5" width="160" height="52.5" as="geometry"/>
                </mxCell>
                <mxCell id="366" value="&lt;font face=&quot;Verdana&quot; style=&quot;font-size: 11px&quot;&gt;Extract gulesider&lt;br&gt;00:10:09&lt;br&gt;&lt;/font&gt;" style="rounded=0;whiteSpace=wrap;html=1;fillColor=none;fontColor=#ffffff;strokeColor=default;shadow=0;verticalAlign=middle;align=center;fontSize=11;" vertex="1" parent="1">
                    <mxGeometry x="1100" y="2370" width="160" height="52.5" as="geometry"/>
                </mxCell>
                <mxCell id="367" value="&lt;font face=&quot;Verdana&quot; style=&quot;font-size: 11px&quot;&gt;Extract gulesider&lt;br&gt;00:00:49&lt;br&gt;&lt;/font&gt;" style="rounded=0;whiteSpace=wrap;html=1;fillColor=none;fontColor=#ffffff;strokeColor=default;shadow=0;verticalAlign=middle;align=center;fontSize=11;" vertex="1" parent="1">
                    <mxGeometry x="1100" y="2310" width="160" height="52.5" as="geometry"/>
                </mxCell>
                <mxCell id="368" value="&lt;font face=&quot;Verdana&quot;&gt;Gulesider.no&lt;/font&gt;" style="rounded=0;whiteSpace=wrap;html=1;fillColor=#FFE001;strokeColor=none;shadow=0;fontColor=#000000;" vertex="1" parent="1">
                    <mxGeometry x="120" y="2195" width="120" height="60" as="geometry"/>
                </mxCell>
                <mxCell id="369" value="&lt;span style=&quot;font-family: &amp;#34;verdana&amp;#34;&quot;&gt;1881.no&lt;br&gt;&lt;/span&gt;" style="rounded=0;whiteSpace=wrap;html=1;fillColor=#8BC1FF;strokeColor=none;shadow=0;fontColor=#ffffff;gradientColor=none;" vertex="1" parent="1">
                    <mxGeometry x="120" y="2265" width="120" height="60" as="geometry"/>
                </mxCell>
                <mxCell id="370" value="&lt;span style=&quot;font-family: &amp;#34;verdana&amp;#34;&quot;&gt;Proff.no&lt;/span&gt;" style="rounded=0;whiteSpace=wrap;html=1;fillColor=#7E4282;fontColor=#ffffff;strokeColor=none;shadow=0;" vertex="1" parent="1">
                    <mxGeometry x="1380" y="2370" width="120" height="52.5" as="geometry"/>
                </mxCell>
                <mxCell id="371" style="edgeStyle=none;html=1;labelBorderColor=default;fontFamily=Verdana;fontSize=11;fontColor=#FFFFFF;strokeColor=#FFE001;" edge="1" parent="1">
                    <mxGeometry relative="1" as="geometry">
                        <mxPoint x="1320" y="2287.0000000000005" as="sourcePoint"/>
                        <mxPoint x="1270" y="2287.0000000000005" as="targetPoint"/>
                        <Array as="points">
                            <mxPoint x="1370" y="2287"/>
                            <mxPoint x="1320" y="2287"/>
                        </Array>
                    </mxGeometry>
                </mxCell>
                <mxCell id="372" value="&lt;font face=&quot;Verdana&quot;&gt;Gulesider.no&lt;/font&gt;" style="rounded=0;whiteSpace=wrap;html=1;fillColor=#FFE001;strokeColor=none;shadow=0;fontColor=#000000;" vertex="1" parent="1">
                    <mxGeometry x="1380" y="2248.75" width="120" height="51.25" as="geometry"/>
                </mxCell>
                <mxCell id="373" value="&lt;span style=&quot;font-family: &amp;#34;verdana&amp;#34;&quot;&gt;1881.no&lt;br&gt;&lt;/span&gt;" style="rounded=0;whiteSpace=wrap;html=1;fillColor=#8BC1FF;strokeColor=none;shadow=0;fontColor=#ffffff;gradientColor=none;" vertex="1" parent="1">
                    <mxGeometry x="1380" y="2310" width="120" height="51.25" as="geometry"/>
                </mxCell>
                <mxCell id="374" style="edgeStyle=none;html=1;labelBorderColor=default;fontFamily=Verdana;fontSize=11;fontColor=#FFFFFF;strokeColor=#8BC1FF;dashed=1;" edge="1" parent="1">
                    <mxGeometry relative="1" as="geometry">
                        <mxPoint x="1270" y="2326.66" as="sourcePoint"/>
                        <mxPoint x="1370" y="2326.66" as="targetPoint"/>
                        <Array as="points"/>
                    </mxGeometry>
                </mxCell>
                <mxCell id="375" style="edgeStyle=none;html=1;labelBorderColor=default;fontFamily=Verdana;fontSize=11;fontColor=#FFFFFF;strokeColor=#8BC1FF;" edge="1" parent="1">
                    <mxGeometry relative="1" as="geometry">
                        <mxPoint x="1320" y="2352.66" as="sourcePoint"/>
                        <mxPoint x="1270" y="2352.66" as="targetPoint"/>
                        <Array as="points">
                            <mxPoint x="1370" y="2352.66"/>
                            <mxPoint x="1320" y="2352.66"/>
                        </Array>
                    </mxGeometry>
                </mxCell>
                <mxCell id="376" style="edgeStyle=none;html=1;labelBorderColor=default;fontFamily=Verdana;fontSize=11;fontColor=#FFFFFF;strokeColor=#AD5BB3;dashed=1;" edge="1" parent="1">
                    <mxGeometry relative="1" as="geometry">
                        <mxPoint x="1270" y="2382.91" as="sourcePoint"/>
                        <mxPoint x="1370" y="2382.91" as="targetPoint"/>
                        <Array as="points"/>
                    </mxGeometry>
                </mxCell>
                <mxCell id="377" style="edgeStyle=none;html=1;labelBorderColor=default;fontFamily=Verdana;fontSize=11;fontColor=#FFFFFF;strokeColor=#AD5BB3;" edge="1" parent="1">
                    <mxGeometry relative="1" as="geometry">
                        <mxPoint x="1320" y="2408.91" as="sourcePoint"/>
                        <mxPoint x="1270" y="2408.91" as="targetPoint"/>
                        <Array as="points">
                            <mxPoint x="1370" y="2408.91"/>
                            <mxPoint x="1320" y="2408.91"/>
                        </Array>
                    </mxGeometry>
                </mxCell>
                <mxCell id="378" value="&lt;font face=&quot;Verdana&quot; style=&quot;font-size: 12px&quot;&gt;&lt;span style=&quot;font-size: 12px&quot;&gt;&amp;nbsp; Stage 0: &lt;/span&gt;&lt;br&gt;&lt;span style=&quot;font-size: 11px&quot;&gt;&#9;&lt;/span&gt;&lt;span style=&quot;font-size: 12px&quot;&gt;&lt;span style=&quot;white-space: pre&quot;&gt;&#9;&lt;/span&gt;Get brreg data&lt;/span&gt;&lt;br&gt;&#9;&lt;font style=&quot;font-size: 12px&quot;&gt;&lt;span style=&quot;white-space: pre&quot;&gt;&#9;&lt;/span&gt;time:00:04:54&lt;/font&gt;&lt;/font&gt;&lt;font face=&quot;Verdana&quot; style=&quot;font-size: 12px&quot;&gt;&lt;font style=&quot;font-size: 12px&quot;&gt;&lt;br&gt;&lt;/font&gt;&lt;span style=&quot;font-size: 13px&quot;&gt;&amp;nbsp;&lt;/span&gt;&lt;br&gt;&lt;/font&gt;" style="rounded=0;whiteSpace=wrap;html=1;fillColor=#3D454F;fontColor=#ffffff;strokeColor=none;shadow=0;verticalAlign=top;align=left;fontSize=11;" vertex="1" parent="1">
                    <mxGeometry x="380" y="2230" width="140" height="52.5" as="geometry"/>
                </mxCell>
                <mxCell id="389" value="" style="edgeStyle=elbowEdgeStyle;elbow=horizontal;endArrow=classic;html=1;labelBorderColor=default;fontFamily=Verdana;fontSize=12;fontColor=#FFFFFF;strokeColor=#FFE001;" edge="1" parent="1">
                    <mxGeometry width="50" height="50" relative="1" as="geometry">
                        <mxPoint x="1150" y="2490" as="sourcePoint"/>
                        <mxPoint x="900" y="2499.65" as="targetPoint"/>
                        <Array as="points">
                            <mxPoint x="1150" y="2419.65"/>
                            <mxPoint x="1140" y="2419.65"/>
                            <mxPoint x="1110" y="2479.65"/>
                        </Array>
                    </mxGeometry>
                </mxCell>
                <mxCell id="391" value="" style="edgeStyle=elbowEdgeStyle;elbow=horizontal;endArrow=classic;html=1;labelBorderColor=default;fontFamily=Verdana;fontSize=12;fontColor=#FFFFFF;strokeColor=#DE75E6;" edge="1" parent="1">
                    <mxGeometry width="50" height="50" relative="1" as="geometry">
                        <mxPoint x="1190" y="2490" as="sourcePoint"/>
                        <mxPoint x="900.0000000000002" y="2600" as="targetPoint"/>
                        <Array as="points">
                            <mxPoint x="1190" y="2419.65"/>
                            <mxPoint x="1180" y="2409.65"/>
                            <mxPoint x="1190" y="2549.65"/>
                        </Array>
                    </mxGeometry>
                </mxCell>
                <mxCell id="392" value="" style="edgeStyle=elbowEdgeStyle;elbow=horizontal;endArrow=classic;html=1;labelBorderColor=default;fontFamily=Verdana;fontSize=12;fontColor=#FFFFFF;strokeColor=#8BC1FF;fillColor=#1ba1e2;" edge="1" parent="1">
                    <mxGeometry width="50" height="50" relative="1" as="geometry">
                        <mxPoint x="1170" y="2490" as="sourcePoint"/>
                        <mxPoint x="900.0000000000002" y="2550" as="targetPoint"/>
                        <Array as="points">
                            <mxPoint x="1170" y="2419.65"/>
                            <mxPoint x="1160" y="2429.65"/>
                            <mxPoint x="1150" y="2539.65"/>
                        </Array>
                    </mxGeometry>
                </mxCell>
                <mxCell id="394" value="&lt;font color=&quot;#45cecc&quot; face=&quot;Verdana&quot;&gt;&lt;b&gt;ProSpector&lt;/b&gt;&lt;/font&gt;" style="rounded=0;whiteSpace=wrap;html=1;fillColor=#1e2227;fontColor=#ffffff;strokeColor=#45CECC;shadow=0;verticalAlign=top;" vertex="1" parent="1">
                    <mxGeometry x="340" y="2490" width="220" height="130" as="geometry"/>
                </mxCell>
                <mxCell id="395" value="&lt;font face=&quot;Verdana&quot;&gt;Backend&lt;/font&gt;" style="rounded=0;whiteSpace=wrap;html=1;fillColor=#1e2227;fontColor=#ffffff;strokeColor=none;shadow=0;verticalAlign=top;" vertex="1" parent="1">
                    <mxGeometry x="350" y="2520" width="200" height="80" as="geometry"/>
                </mxCell>
                <mxCell id="396" value="" style="rounded=0;whiteSpace=wrap;html=1;fillColor=#1e2227;fontColor=#ffffff;strokeColor=#FFFFFF;shadow=0;verticalAlign=top;" vertex="1" parent="1">
                    <mxGeometry x="350" y="2730" width="200" as="geometry"/>
                </mxCell>
                <mxCell id="397" value="&lt;font face=&quot;Verdana&quot;&gt;&amp;nbsp; Stage 3: &lt;br&gt;&amp;nbsp; &amp;nbsp;&lt;span style=&quot;white-space: pre&quot;&gt;&#9;&lt;/span&gt;Make Google Input&lt;br&gt;&lt;/font&gt;&lt;span style=&quot;font-family: &amp;#34;verdana&amp;#34;&quot;&gt;&lt;span style=&quot;white-space: pre&quot;&gt;&#9;&lt;/span&gt;time: 00:13:58&lt;/span&gt;&lt;font face=&quot;Verdana&quot;&gt;&lt;br&gt;&lt;/font&gt;" style="rounded=0;whiteSpace=wrap;html=1;fillColor=#3D454F;fontColor=#ffffff;strokeColor=none;shadow=0;verticalAlign=top;align=left;fontSize=11;" vertex="1" parent="1">
                    <mxGeometry x="350" y="2557.5" width="200" height="52.5" as="geometry"/>
                </mxCell>
                <mxCell id="398" value="" style="line;strokeWidth=1;html=1;rounded=0;shadow=0;glass=0;labelBackgroundColor=#CCE5FF;labelBorderColor=default;sketch=0;fontFamily=Verdana;fontColor=#FFFFFF;fillColor=#45CECC;gradientColor=none;gradientDirection=east;strokeColor=#FFFFFF;spacingTop=7;" vertex="1" parent="1">
                    <mxGeometry x="370" y="2510" width="160" height="10" as="geometry"/>
                </mxCell>
                <mxCell id="408" value="" style="edgeStyle=elbowEdgeStyle;elbow=horizontal;endArrow=classic;html=1;labelBorderColor=default;fontFamily=Verdana;fontSize=12;fontColor=#FFFFFF;strokeColor=#8BC1FF;" edge="1" parent="1">
                    <mxGeometry width="50" height="50" relative="1" as="geometry">
                        <mxPoint x="700" y="2550" as="sourcePoint"/>
                        <mxPoint x="570" y="2585" as="targetPoint"/>
                        <Array as="points">
                            <mxPoint x="650" y="2550"/>
                            <mxPoint x="810" y="2505"/>
                            <mxPoint x="780" y="2565"/>
                        </Array>
                    </mxGeometry>
                </mxCell>
                <mxCell id="409" value="" style="edgeStyle=elbowEdgeStyle;elbow=horizontal;endArrow=classic;html=1;labelBorderColor=default;fontFamily=Verdana;fontSize=12;fontColor=#FFFFFF;strokeColor=#DE75E6;" edge="1" parent="1">
                    <mxGeometry width="50" height="50" relative="1" as="geometry">
                        <mxPoint x="700" y="2600" as="sourcePoint"/>
                        <mxPoint x="570" y="2600" as="targetPoint"/>
                        <Array as="points">
                            <mxPoint x="650" y="2565"/>
                            <mxPoint x="810" y="2520"/>
                            <mxPoint x="780" y="2580"/>
                        </Array>
                    </mxGeometry>
                </mxCell>
                <mxCell id="410" value="&lt;font color=&quot;#45cecc&quot; face=&quot;Verdana&quot;&gt;&lt;b&gt;ProSpector&lt;/b&gt;&lt;/font&gt;" style="rounded=0;whiteSpace=wrap;html=1;fillColor=#1e2227;fontColor=#ffffff;strokeColor=#45CECC;shadow=0;verticalAlign=top;" vertex="1" parent="1">
                    <mxGeometry x="1070" y="2640" width="220" height="130" as="geometry"/>
                </mxCell>
                <mxCell id="411" value="&lt;font face=&quot;Verdana&quot;&gt;Backend&lt;/font&gt;" style="rounded=0;whiteSpace=wrap;html=1;fillColor=#1e2227;fontColor=#ffffff;strokeColor=none;shadow=0;verticalAlign=top;" vertex="1" parent="1">
                    <mxGeometry x="1080" y="2670" width="200" height="80" as="geometry"/>
                </mxCell>
                <mxCell id="412" value="&lt;font face=&quot;Verdana&quot;&gt;&amp;nbsp; Stage 4: &lt;br&gt;&amp;nbsp; &amp;nbsp;&lt;span style=&quot;white-space: pre&quot;&gt;&#9;&lt;/span&gt;Extract Google&lt;br&gt;&lt;/font&gt;&lt;span style=&quot;font-family: &amp;#34;verdana&amp;#34;&quot;&gt;&lt;span style=&quot;white-space: pre&quot;&gt;&#9;&lt;/span&gt;time: 01:04:36&lt;/span&gt;&lt;font face=&quot;Verdana&quot;&gt;&lt;br&gt;&lt;br&gt;&lt;br&gt;&lt;br&gt;&lt;br&gt;&lt;br&gt;&lt;br&gt;&lt;br&gt;&lt;br&gt;&lt;br&gt;&lt;br&gt;&lt;br&gt;&lt;br&gt;&lt;br&gt;&lt;br&gt;&lt;br&gt;&lt;br&gt;&lt;br&gt;&lt;/font&gt;" style="rounded=0;whiteSpace=wrap;html=1;fillColor=#3D454F;fontColor=#ffffff;strokeColor=none;shadow=0;verticalAlign=top;align=left;fontSize=11;" vertex="1" parent="1">
                    <mxGeometry x="1080" y="2707.5" width="200" height="52.5" as="geometry"/>
                </mxCell>
                <mxCell id="413" value="" style="line;strokeWidth=1;html=1;rounded=0;shadow=0;glass=0;labelBackgroundColor=#CCE5FF;labelBorderColor=default;sketch=0;fontFamily=Verdana;fontColor=#FFFFFF;fillColor=#45CECC;gradientColor=none;gradientDirection=east;strokeColor=#FFFFFF;spacingTop=7;" vertex="1" parent="1">
                    <mxGeometry x="1100" y="2660" width="160" height="10" as="geometry"/>
                </mxCell>
                <mxCell id="414" style="edgeStyle=none;html=1;labelBorderColor=default;fontFamily=Verdana;fontSize=11;fontColor=#FFFFFF;strokeColor=#DB4437;dashed=1;" edge="1" parent="1">
                    <mxGeometry relative="1" as="geometry">
                        <mxPoint x="910" y="2720" as="sourcePoint"/>
                        <mxPoint x="1060" y="2720" as="targetPoint"/>
                        <Array as="points">
                            <mxPoint x="1020" y="2720"/>
                        </Array>
                    </mxGeometry>
                </mxCell>
                <mxCell id="416" value="AWS (Relational Database)" style="swimlane;rounded=0;shadow=0;glass=0;sketch=0;fontFamily=Verdana;fontColor=#FFFFFF;strokeColor=default;fillColor=#FF8000;gradientColor=none;gradientDirection=east;startSize=23;swimlaneFillColor=none;swimlaneLine=0;" vertex="1" parent="1">
                    <mxGeometry x="1330" y="2890" width="250" height="350" as="geometry">
                        <mxRectangle x="560" y="70" width="150" height="23" as="alternateBounds"/>
                    </mxGeometry>
                </mxCell>
                <mxCell id="417" value="&lt;h3&gt;&lt;b&gt;&lt;font face=&quot;Verdana&quot; color=&quot;#ffffff&quot;&gt;Product&lt;/font&gt;&lt;/b&gt;&lt;/h3&gt;" style="rounded=0;whiteSpace=wrap;html=1;fillColor=#3D454F;strokeColor=none;shadow=0;fontColor=#ffffff;verticalAlign=top;" vertex="1" parent="416">
                    <mxGeometry x="30" y="60" width="190" height="100" as="geometry"/>
                </mxCell>
                <mxCell id="418" value="&lt;font face=&quot;verdana&quot; color=&quot;#ffffff&quot;&gt;Call List&lt;/font&gt;" style="rounded=0;whiteSpace=wrap;html=1;fillColor=#CC6600;strokeColor=none;shadow=0;fontColor=#000000;horizontal=1;verticalAlign=middle;" vertex="1" parent="416">
                    <mxGeometry x="40" y="110" width="170" height="40" as="geometry"/>
                </mxCell>
                <mxCell id="419" value="&lt;h3&gt;&lt;b&gt;&lt;font face=&quot;Verdana&quot; color=&quot;#ffffff&quot;&gt;User Management&lt;/font&gt;&lt;/b&gt;&lt;/h3&gt;" style="rounded=0;whiteSpace=wrap;html=1;fillColor=#3D454F;strokeColor=none;shadow=0;fontColor=#000000;verticalAlign=top;" vertex="1" parent="416">
                    <mxGeometry x="30" y="170" width="190" height="150" as="geometry"/>
                </mxCell>
                <mxCell id="420" value="&lt;font face=&quot;verdana&quot; color=&quot;#ffffff&quot;&gt;Userbase&lt;/font&gt;" style="rounded=0;whiteSpace=wrap;html=1;fillColor=#007FFF;strokeColor=none;shadow=0;fontColor=#000000;horizontal=1;verticalAlign=middle;" vertex="1" parent="416">
                    <mxGeometry x="40" y="270" width="170" height="40" as="geometry"/>
                </mxCell>
                <mxCell id="421" value="&lt;font face=&quot;verdana&quot;&gt;Client Overview&lt;/font&gt;" style="rounded=0;whiteSpace=wrap;html=1;fillColor=#4D9900;strokeColor=none;shadow=0;fontColor=#FFFFFF;horizontal=1;verticalAlign=middle;" vertex="1" parent="416">
                    <mxGeometry x="40" y="220" width="170" height="40" as="geometry"/>
                </mxCell>
                <mxCell id="432" style="edgeStyle=none;html=1;labelBorderColor=default;fontFamily=Verdana;fontSize=11;fontColor=#FFFFFF;strokeColor=#DB4437;dashed=1;" edge="1" parent="1">
                    <mxGeometry relative="1" as="geometry">
                        <mxPoint x="1300" y="2723" as="sourcePoint"/>
                        <mxPoint x="1390" y="2723" as="targetPoint"/>
                        <Array as="points"/>
                    </mxGeometry>
                </mxCell>
                <mxCell id="433" style="edgeStyle=none;html=1;labelBorderColor=default;fontFamily=Verdana;fontSize=11;fontColor=#FFFFFF;strokeColor=#DB4437;" edge="1" parent="1">
                    <mxGeometry relative="1" as="geometry">
                        <mxPoint x="1350" y="2748.9999999999995" as="sourcePoint"/>
                        <mxPoint x="1300" y="2748.9999999999995" as="targetPoint"/>
                        <Array as="points">
                            <mxPoint x="1390" y="2749"/>
                            <mxPoint x="1350" y="2749"/>
                        </Array>
                    </mxGeometry>
                </mxCell>
                <mxCell id="434" value="&lt;font color=&quot;#45cecc&quot; face=&quot;Verdana&quot;&gt;&lt;b&gt;ProSpector&lt;/b&gt;&lt;/font&gt;" style="rounded=0;whiteSpace=wrap;html=1;fillColor=#1e2227;fontColor=#ffffff;strokeColor=#45CECC;shadow=0;verticalAlign=top;" vertex="1" parent="1">
                    <mxGeometry x="300" y="2915" width="220" height="140" as="geometry"/>
                </mxCell>
                <mxCell id="435" value="&lt;font face=&quot;Verdana&quot;&gt;Front end&lt;/font&gt;" style="rounded=0;whiteSpace=wrap;html=1;fillColor=#1e2227;fontColor=#ffffff;strokeColor=none;shadow=0;verticalAlign=top;" vertex="1" parent="1">
                    <mxGeometry x="310" y="2945" width="200" height="80" as="geometry"/>
                </mxCell>
                <mxCell id="436" value="&lt;font face=&quot;Verdana&quot;&gt;&amp;nbsp; &amp;nbsp; API:&lt;br&gt;&lt;span style=&quot;white-space: pre&quot;&gt;&#9;&lt;/span&gt;Get List Section&lt;br&gt;&lt;/font&gt;" style="rounded=0;whiteSpace=wrap;html=1;fillColor=#3D454F;fontColor=#ffffff;strokeColor=none;shadow=0;verticalAlign=top;align=left;fontSize=11;" vertex="1" parent="1">
                    <mxGeometry x="310" y="2982.5" width="200" height="52.5" as="geometry"/>
                </mxCell>
                <mxCell id="437" value="" style="line;strokeWidth=1;html=1;rounded=0;shadow=0;glass=0;labelBackgroundColor=#CCE5FF;labelBorderColor=default;sketch=0;fontFamily=Verdana;fontColor=#FFFFFF;fillColor=#45CECC;gradientColor=none;gradientDirection=east;strokeColor=#FFFFFF;spacingTop=7;" vertex="1" parent="1">
                    <mxGeometry x="330" y="2935" width="160" height="10" as="geometry"/>
                </mxCell>
                <mxCell id="440" value="&lt;font color=&quot;#000000&quot;&gt;&lt;b&gt;User&lt;/b&gt;&lt;/font&gt;" style="rounded=0;whiteSpace=wrap;html=1;shadow=0;glass=0;labelBackgroundColor=none;labelBorderColor=none;sketch=0;fontFamily=Verdana;fontSize=12;fontColor=#FFFFFF;strokeColor=none;strokeWidth=1;fillColor=#00FF00;gradientColor=none;gradientDirection=east;" vertex="1" parent="1">
                    <mxGeometry x="70" y="2975" width="120" height="60" as="geometry"/>
                </mxCell>
                <mxCell id="445" value="" style="endArrow=classic;html=1;labelBorderColor=default;fontFamily=Verdana;fontSize=12;fontColor=#000000;strokeColor=#00FF00;" edge="1" parent="1">
                    <mxGeometry width="50" height="50" relative="1" as="geometry">
                        <mxPoint x="530" y="3020" as="sourcePoint"/>
                        <mxPoint x="660" y="3050" as="targetPoint"/>
                        <Array as="points">
                            <mxPoint x="660" y="3020"/>
                        </Array>
                    </mxGeometry>
                </mxCell>
                <mxCell id="446" value="" style="endArrow=classic;html=1;labelBorderColor=default;fontFamily=Verdana;fontSize=12;fontColor=#000000;strokeColor=#00FF00;" edge="1" parent="1">
                    <mxGeometry width="50" height="50" relative="1" as="geometry">
                        <mxPoint x="1070" y="3090" as="sourcePoint"/>
                        <mxPoint x="1350" y="3140" as="targetPoint"/>
                        <Array as="points">
                            <mxPoint x="1070" y="3140"/>
                        </Array>
                    </mxGeometry>
                </mxCell>
                <mxCell id="449" value="&lt;font color=&quot;#45cecc&quot; face=&quot;Verdana&quot;&gt;&lt;b&gt;ProSpector&lt;/b&gt;&lt;/font&gt;" style="rounded=0;whiteSpace=wrap;html=1;fillColor=#1e2227;fontColor=#ffffff;strokeColor=#45CECC;shadow=0;verticalAlign=top;" vertex="1" parent="1">
                    <mxGeometry x="1030" y="2915" width="220" height="160" as="geometry"/>
                </mxCell>
                <mxCell id="450" value="&lt;font face=&quot;Verdana&quot;&gt;Front end&lt;/font&gt;" style="rounded=0;whiteSpace=wrap;html=1;fillColor=#1e2227;fontColor=#ffffff;strokeColor=none;shadow=0;verticalAlign=top;" vertex="1" parent="1">
                    <mxGeometry x="1040" y="2945" width="200" height="80" as="geometry"/>
                </mxCell>
                <mxCell id="451" value="&lt;div&gt;&lt;span style=&quot;font-family: &amp;#34;verdana&amp;#34;&quot;&gt;Call List Manager&lt;/span&gt;&lt;/div&gt;" style="rounded=0;whiteSpace=wrap;html=1;fillColor=#3D454F;fontColor=#ffffff;strokeColor=none;shadow=0;verticalAlign=middle;align=center;fontSize=11;" vertex="1" parent="1">
                    <mxGeometry x="1040" y="2982.5" width="200" height="82.5" as="geometry"/>
                </mxCell>
                <mxCell id="452" value="" style="line;strokeWidth=1;html=1;rounded=0;shadow=0;glass=0;labelBackgroundColor=#CCE5FF;labelBorderColor=default;sketch=0;fontFamily=Verdana;fontColor=#FFFFFF;fillColor=#45CECC;gradientColor=none;gradientDirection=east;strokeColor=#FFFFFF;spacingTop=7;" vertex="1" parent="1">
                    <mxGeometry x="1060" y="2935" width="160" height="10" as="geometry"/>
                </mxCell>
                <mxCell id="447" value="" style="endArrow=classic;html=1;labelBorderColor=default;fontFamily=Verdana;fontSize=12;fontColor=#000000;strokeColor=#4D9900;dashed=1;" edge="1" parent="1">
                    <mxGeometry width="50" height="50" relative="1" as="geometry">
                        <mxPoint x="1350" y="3125" as="sourcePoint"/>
                        <mxPoint x="1090" y="3090" as="targetPoint"/>
                        <Array as="points">
                            <mxPoint x="1090" y="3125"/>
                        </Array>
                    </mxGeometry>
                </mxCell>
                <mxCell id="456" value="" style="endArrow=classic;html=1;dashed=1;labelBorderColor=default;fontFamily=Verdana;fontSize=12;fontColor=#000000;strokeColor=#4D9900;" edge="1" parent="1">
                    <mxGeometry width="50" height="50" relative="1" as="geometry">
                        <mxPoint x="1260" y="3055" as="sourcePoint"/>
                        <mxPoint x="1340" y="3035" as="targetPoint"/>
                        <Array as="points">
                            <mxPoint x="1290" y="3055"/>
                            <mxPoint x="1290" y="3035"/>
                        </Array>
                    </mxGeometry>
                </mxCell>
                <mxCell id="457" value="" style="endArrow=classic;html=1;labelBorderColor=default;fontFamily=Verdana;fontSize=12;fontColor=#FF8000;strokeColor=#FF8000;" edge="1" parent="1">
                    <mxGeometry width="50" height="50" relative="1" as="geometry">
                        <mxPoint x="1340" y="3015" as="sourcePoint"/>
                        <mxPoint x="1260" y="3015" as="targetPoint"/>
                    </mxGeometry>
                </mxCell>
                <mxCell id="458" value="" style="endArrow=classic;html=1;labelBorderColor=default;fontFamily=Verdana;fontSize=12;fontColor=#FF8000;strokeColor=#FF8000;" edge="1" parent="1">
                    <mxGeometry width="50" height="50" relative="1" as="geometry">
                        <mxPoint x="1010" y="2999" as="sourcePoint"/>
                        <mxPoint x="530" y="2999.42" as="targetPoint"/>
                    </mxGeometry>
                </mxCell>
                <mxCell id="459" value="" style="endArrow=classic;html=1;labelBorderColor=default;fontFamily=Verdana;fontSize=12;fontColor=#FF8000;strokeColor=#FF8000;" edge="1" parent="1">
                    <mxGeometry width="50" height="50" relative="1" as="geometry">
                        <mxPoint x="290" y="3000" as="sourcePoint"/>
                        <mxPoint x="200" y="3000" as="targetPoint"/>
                    </mxGeometry>
                </mxCell>
                <mxCell id="431" value="" style="edgeStyle=segmentEdgeStyle;endArrow=classic;html=1;labelBorderColor=default;fontFamily=Verdana;fontSize=12;fontColor=#FFFFFF;strokeColor=#DB4437;" edge="1" parent="1" source="410">
                    <mxGeometry width="50" height="50" relative="1" as="geometry">
                        <mxPoint x="1247" y="2800" as="sourcePoint"/>
                        <mxPoint x="1560" y="3020" as="targetPoint"/>
                        <Array as="points">
                            <mxPoint x="1247" y="2850"/>
                            <mxPoint x="1630" y="2850"/>
                            <mxPoint x="1630" y="3020"/>
                        </Array>
                    </mxGeometry>
                </mxCell>
                <mxCell id="463" value="" style="endArrow=classic;html=1;labelBorderColor=default;fontFamily=Verdana;fontSize=12;fontColor=#000000;strokeColor=#00FF00;" edge="1" parent="1">
                    <mxGeometry width="50" height="50" relative="1" as="geometry">
                        <mxPoint x="200" y="3025" as="sourcePoint"/>
                        <mxPoint x="290" y="3025" as="targetPoint"/>
                        <Array as="points"/>
                    </mxGeometry>
                </mxCell>
                <mxCell id="485" value="Local Storage" style="swimlane;rounded=0;shadow=0;glass=0;sketch=0;fontFamily=Verdana;fontColor=#000000;strokeColor=default;fillColor=#FFEBE6;gradientColor=none;gradientDirection=east;startSize=23;swimlaneFillColor=none;swimlaneLine=0;" vertex="1" parent="1">
                    <mxGeometry x="605" y="3065" width="250" height="215" as="geometry">
                        <mxRectangle x="560" y="70" width="150" height="23" as="alternateBounds"/>
                    </mxGeometry>
                </mxCell>
                <mxCell id="493" value="&lt;h3&gt;&lt;b&gt;&lt;font face=&quot;Verdana&quot; color=&quot;#ffffff&quot;&gt;Enviourment Variables&lt;/font&gt;&lt;/b&gt;&lt;/h3&gt;" style="rounded=0;whiteSpace=wrap;html=1;fillColor=#3D454F;strokeColor=none;shadow=0;fontColor=#000000;verticalAlign=top;" vertex="1" parent="485">
                    <mxGeometry x="30" y="45" width="190" height="150" as="geometry"/>
                </mxCell>
                <mxCell id="495" value="&lt;font face=&quot;verdana&quot;&gt;SQL Config&lt;/font&gt;" style="rounded=0;whiteSpace=wrap;html=1;fillColor=#4D9900;strokeColor=none;shadow=0;fontColor=#FFFFFF;horizontal=1;verticalAlign=middle;" vertex="1" parent="485">
                    <mxGeometry x="40" y="95" width="170" height="40" as="geometry"/>
                </mxCell>
                <mxCell id="517" value="&lt;font face=&quot;verdana&quot; color=&quot;#ffffff&quot;&gt;user credenrtials&lt;/font&gt;" style="rounded=0;whiteSpace=wrap;html=1;fillColor=#d80073;strokeColor=#A50040;shadow=0;fontColor=#ffffff;horizontal=1;verticalAlign=middle;" vertex="1" parent="485">
                    <mxGeometry x="40" y="145" width="170" height="40" as="geometry"/>
                </mxCell>
                <mxCell id="507" value="" style="endArrow=classic;html=1;labelBorderColor=default;fontFamily=Verdana;fontSize=12;fontColor=#000000;strokeColor=#00FF00;" edge="1" parent="1">
                    <mxGeometry width="50" height="50" relative="1" as="geometry">
                        <mxPoint x="750" y="3049" as="sourcePoint"/>
                        <mxPoint x="1000" y="3030" as="targetPoint"/>
                        <Array as="points">
                            <mxPoint x="750" y="3030"/>
                        </Array>
                    </mxGeometry>
                </mxCell>
                <mxCell id="466" value="&lt;font face=&quot;Verdana&quot;&gt;Front end&lt;/font&gt;" style="rounded=0;whiteSpace=wrap;html=1;fillColor=#1e2227;fontColor=#ffffff;strokeColor=none;shadow=0;verticalAlign=top;" vertex="1" parent="1">
                    <mxGeometry x="-20" y="3155" width="200" height="80" as="geometry"/>
                </mxCell>
                <mxCell id="467" value="&lt;font face=&quot;Verdana&quot;&gt;&amp;nbsp; &amp;nbsp; API:&lt;br&gt;&lt;span style=&quot;white-space: pre&quot;&gt;&#9;&lt;/span&gt;Create User&lt;br&gt;&lt;/font&gt;" style="rounded=0;whiteSpace=wrap;html=1;fillColor=#3D454F;fontColor=#ffffff;strokeColor=none;shadow=0;verticalAlign=top;align=left;fontSize=11;" vertex="1" parent="1">
                    <mxGeometry x="-20" y="3192.5" width="200" height="52.5" as="geometry"/>
                </mxCell>
                <mxCell id="468" value="" style="line;strokeWidth=1;html=1;rounded=0;shadow=0;glass=0;labelBackgroundColor=#CCE5FF;labelBorderColor=default;sketch=0;fontFamily=Verdana;fontColor=#FFFFFF;fillColor=#45CECC;gradientColor=none;gradientDirection=east;strokeColor=#FFFFFF;spacingTop=7;" vertex="1" parent="1">
                    <mxGeometry y="3145" width="160" height="10" as="geometry"/>
                </mxCell>
                <mxCell id="469" value="&lt;font color=&quot;#000000&quot;&gt;&lt;b&gt;User&lt;/b&gt;&lt;/font&gt;" style="rounded=0;whiteSpace=wrap;html=1;shadow=0;glass=0;labelBackgroundColor=none;labelBorderColor=none;sketch=0;fontFamily=Verdana;fontSize=12;fontColor=#FFFFFF;strokeColor=none;strokeWidth=1;fillColor=#00FF00;gradientColor=none;gradientDirection=east;" vertex="1" parent="1">
                    <mxGeometry x="-270" y="3265" width="120" height="60" as="geometry"/>
                </mxCell>
                <mxCell id="471" value="" style="endArrow=classic;html=1;labelBorderColor=default;fontFamily=Verdana;fontSize=12;fontColor=#000000;strokeColor=#00FF00;" edge="1" parent="1">
                    <mxGeometry width="50" height="50" relative="1" as="geometry">
                        <mxPoint x="-140" y="3307.5" as="sourcePoint"/>
                        <mxPoint x="-50" y="3307.5" as="targetPoint"/>
                        <Array as="points"/>
                    </mxGeometry>
                </mxCell>
                <mxCell id="474" value="&lt;font face=&quot;Verdana&quot;&gt;&amp;nbsp; &amp;nbsp; API:&lt;br&gt;&lt;span style=&quot;white-space: pre&quot;&gt;&#9;&lt;/span&gt;Reset Password&lt;br&gt;&lt;/font&gt;" style="rounded=0;whiteSpace=wrap;html=1;fillColor=#3D454F;fontColor=#ffffff;strokeColor=none;shadow=0;verticalAlign=top;align=left;fontSize=11;" vertex="1" parent="1">
                    <mxGeometry x="-20" y="3255" width="200" height="52.5" as="geometry"/>
                </mxCell>
                <mxCell id="479" value="&lt;font face=&quot;Verdana&quot;&gt;&amp;nbsp; &amp;nbsp; API:&lt;br&gt;&lt;span style=&quot;white-space: pre&quot;&gt;&#9;&lt;/span&gt;Reset Password&lt;br&gt;&lt;/font&gt;" style="rounded=0;whiteSpace=wrap;html=1;fillColor=#3D454F;fontColor=#ffffff;strokeColor=none;shadow=0;verticalAlign=top;align=left;fontSize=11;" vertex="1" parent="1">
                    <mxGeometry x="-20" y="3315" width="200" height="52.5" as="geometry"/>
                </mxCell>
                <mxCell id="508" value="&lt;font color=&quot;#45cecc&quot; face=&quot;Verdana&quot;&gt;&lt;b&gt;ProSpector&lt;/b&gt;&lt;/font&gt;" style="rounded=0;whiteSpace=wrap;html=1;fillColor=#1e2227;fontColor=#ffffff;strokeColor=#45CECC;shadow=0;verticalAlign=top;" vertex="1" parent="1">
                    <mxGeometry x="-30" y="3125" width="220" height="255" as="geometry"/>
                </mxCell>
                <mxCell id="509" value="&lt;font face=&quot;Verdana&quot;&gt;Front end&lt;/font&gt;" style="rounded=0;whiteSpace=wrap;html=1;fillColor=#1e2227;fontColor=#ffffff;strokeColor=none;shadow=0;verticalAlign=top;" vertex="1" parent="1">
                    <mxGeometry x="-20" y="3155" width="200" height="80" as="geometry"/>
                </mxCell>
                <mxCell id="510" value="&lt;font face=&quot;Verdana&quot;&gt;&amp;nbsp; &amp;nbsp; API:&lt;br&gt;&lt;span style=&quot;white-space: pre&quot;&gt;&#9;&lt;/span&gt;Create User&lt;br&gt;&lt;/font&gt;" style="rounded=0;whiteSpace=wrap;html=1;fillColor=#3D454F;fontColor=#ffffff;strokeColor=none;shadow=0;verticalAlign=top;align=left;fontSize=11;" vertex="1" parent="1">
                    <mxGeometry x="-20" y="3192.5" width="200" height="52.5" as="geometry"/>
                </mxCell>
                <mxCell id="511" value="" style="line;strokeWidth=1;html=1;rounded=0;shadow=0;glass=0;labelBackgroundColor=#CCE5FF;labelBorderColor=default;sketch=0;fontFamily=Verdana;fontColor=#FFFFFF;fillColor=#45CECC;gradientColor=none;gradientDirection=east;strokeColor=#FFFFFF;spacingTop=7;" vertex="1" parent="1">
                    <mxGeometry y="3145" width="160" height="10" as="geometry"/>
                </mxCell>
                <mxCell id="512" value="&lt;font color=&quot;#000000&quot;&gt;&lt;b&gt;User&lt;/b&gt;&lt;/font&gt;" style="rounded=0;whiteSpace=wrap;html=1;shadow=0;glass=0;labelBackgroundColor=none;labelBorderColor=none;sketch=0;fontFamily=Verdana;fontSize=12;fontColor=#ffffff;strokeColor=#006EAF;strokeWidth=1;fillColor=#1ba1e2;gradientDirection=east;" vertex="1" parent="1">
                    <mxGeometry x="-270" y="3265" width="120" height="60" as="geometry"/>
                </mxCell>
                <mxCell id="513" value="" style="endArrow=classic;html=1;labelBorderColor=default;fontFamily=Verdana;fontSize=12;fontColor=#000000;strokeColor=#006EAF;fillColor=#1ba1e2;" edge="1" parent="1">
                    <mxGeometry width="50" height="50" relative="1" as="geometry">
                        <mxPoint x="-140" y="3307.5" as="sourcePoint"/>
                        <mxPoint x="-50" y="3307.5" as="targetPoint"/>
                        <Array as="points"/>
                    </mxGeometry>
                </mxCell>
                <mxCell id="514" value="&lt;font face=&quot;Verdana&quot;&gt;&amp;nbsp; &amp;nbsp; API:&lt;br&gt;&lt;span style=&quot;white-space: pre&quot;&gt;&#9;&lt;/span&gt;Reset Password&lt;br&gt;&lt;/font&gt;" style="rounded=0;whiteSpace=wrap;html=1;fillColor=#3D454F;fontColor=#ffffff;strokeColor=none;shadow=0;verticalAlign=top;align=left;fontSize=11;" vertex="1" parent="1">
                    <mxGeometry x="-20" y="3255" width="200" height="52.5" as="geometry"/>
                </mxCell>
                <mxCell id="515" value="&lt;font face=&quot;Verdana&quot;&gt;&amp;nbsp; &amp;nbsp; API:&lt;br&gt;&lt;span style=&quot;white-space: pre&quot;&gt;&#9;&lt;/span&gt;Reset Password&lt;br&gt;&lt;/font&gt;" style="rounded=0;whiteSpace=wrap;html=1;fillColor=#3D454F;fontColor=#ffffff;strokeColor=none;shadow=0;verticalAlign=top;align=left;fontSize=11;" vertex="1" parent="1">
                    <mxGeometry x="-20" y="3315" width="200" height="52.5" as="geometry"/>
                </mxCell>
                <mxCell id="518" value="" style="endArrow=classic;html=1;labelBorderColor=default;fontFamily=Verdana;fontSize=12;fontColor=#000000;strokeColor=#00FF00;" edge="1" parent="1">
                    <mxGeometry width="50" height="50" relative="1" as="geometry">
                        <mxPoint x="200" y="3313.5699999999997" as="sourcePoint"/>
                        <mxPoint x="290" y="3313.91" as="targetPoint"/>
                        <Array as="points"/>
                    </mxGeometry>
                </mxCell>
                <mxCell id="519" value="&lt;font color=&quot;#45cecc&quot; face=&quot;Verdana&quot;&gt;&lt;b&gt;ProSpector&lt;/b&gt;&lt;/font&gt;" style="rounded=0;whiteSpace=wrap;html=1;fillColor=#1e2227;fontColor=#ffffff;strokeColor=#45CECC;shadow=0;verticalAlign=top;" vertex="1" parent="1">
                    <mxGeometry x="300" y="3230" width="220" height="137.5" as="geometry"/>
                </mxCell>
                <mxCell id="520" value="&lt;div&gt;&lt;span style=&quot;font-family: &amp;#34;verdana&amp;#34;&quot;&gt;Email Verification (FastAPI Mail)&lt;/span&gt;&lt;/div&gt;" style="rounded=0;whiteSpace=wrap;html=1;fillColor=#3D454F;fontColor=#ffffff;strokeColor=none;shadow=0;verticalAlign=middle;align=center;fontSize=11;" vertex="1" parent="1">
                    <mxGeometry x="310" y="3265" width="200" height="42.5" as="geometry"/>
                </mxCell>
                <mxCell id="521" value="&lt;div&gt;&lt;span style=&quot;font-family: &amp;#34;verdana&amp;#34;&quot;&gt;Phone Verification (Twilio)&lt;/span&gt;&lt;/div&gt;" style="rounded=0;whiteSpace=wrap;html=1;fillColor=#3D454F;fontColor=#ffffff;strokeColor=none;shadow=0;verticalAlign=middle;align=center;fontSize=11;" vertex="1" parent="1">
                    <mxGeometry x="310" y="3317.5" width="200" height="40" as="geometry"/>
                </mxCell>
                <mxCell id="524" value="&lt;font color=&quot;#45cecc&quot; face=&quot;Verdana&quot;&gt;&lt;b&gt;ProSpector&lt;/b&gt;&lt;/font&gt;" style="rounded=0;whiteSpace=wrap;html=1;fillColor=#1e2227;fontColor=#ffffff;strokeColor=#45CECC;shadow=0;verticalAlign=top;" vertex="1" parent="1">
                    <mxGeometry x="300" y="3490" width="220" height="140" as="geometry"/>
                </mxCell>
                <mxCell id="525" value="&lt;font face=&quot;Verdana&quot;&gt;Front end&lt;/font&gt;" style="rounded=0;whiteSpace=wrap;html=1;fillColor=#1e2227;fontColor=#ffffff;strokeColor=none;shadow=0;verticalAlign=top;" vertex="1" parent="1">
                    <mxGeometry x="310" y="3520" width="200" height="80" as="geometry"/>
                </mxCell>
                <mxCell id="526" value="&lt;font face=&quot;Verdana&quot;&gt;&amp;nbsp; &amp;nbsp; API:&lt;br&gt;&lt;span style=&quot;white-space: pre&quot;&gt;&#9;&lt;/span&gt;Remember me&lt;br&gt;&lt;/font&gt;" style="rounded=0;whiteSpace=wrap;html=1;fillColor=#3D454F;fontColor=#ffffff;strokeColor=none;shadow=0;verticalAlign=top;align=left;fontSize=11;" vertex="1" parent="1">
                    <mxGeometry x="310" y="3557.5" width="200" height="52.5" as="geometry"/>
                </mxCell>
                <mxCell id="527" value="" style="line;strokeWidth=1;html=1;rounded=0;shadow=0;glass=0;labelBackgroundColor=#CCE5FF;labelBorderColor=default;sketch=0;fontFamily=Verdana;fontColor=#FFFFFF;fillColor=#45CECC;gradientColor=none;gradientDirection=east;strokeColor=#FFFFFF;spacingTop=7;" vertex="1" parent="1">
                    <mxGeometry x="330" y="3510" width="160" height="10" as="geometry"/>
                </mxCell>
                <mxCell id="491" value="" style="endArrow=classic;html=1;labelBorderColor=default;fontFamily=Verdana;fontSize=12;fontColor=#000000;strokeColor=#006EAF;fillColor=#1ba1e2;" edge="1" parent="1">
                    <mxGeometry width="50" height="50" relative="1" as="geometry">
                        <mxPoint x="200" y="3313.5699999999997" as="sourcePoint"/>
                        <mxPoint x="290" y="3313.91" as="targetPoint"/>
                        <Array as="points"/>
                    </mxGeometry>
                </mxCell>
                <mxCell id="496" value="&lt;font color=&quot;#45cecc&quot; face=&quot;Verdana&quot;&gt;&lt;b&gt;ProSpector&lt;/b&gt;&lt;/font&gt;" style="rounded=0;whiteSpace=wrap;html=1;fillColor=#1e2227;fontColor=#ffffff;strokeColor=#45CECC;shadow=0;verticalAlign=top;" vertex="1" parent="1">
                    <mxGeometry x="300" y="3230" width="220" height="137.5" as="geometry"/>
                </mxCell>
                <mxCell id="497" value="&lt;div&gt;&lt;span style=&quot;font-family: &amp;#34;verdana&amp;#34;&quot;&gt;Email Verification (FastAPI Mail)&lt;/span&gt;&lt;/div&gt;" style="rounded=0;whiteSpace=wrap;html=1;fillColor=#3D454F;fontColor=#ffffff;strokeColor=none;shadow=0;verticalAlign=middle;align=center;fontSize=11;" vertex="1" parent="1">
                    <mxGeometry x="310" y="3265" width="200" height="42.5" as="geometry"/>
                </mxCell>
                <mxCell id="498" value="&lt;div&gt;&lt;span style=&quot;font-family: &amp;#34;verdana&amp;#34;&quot;&gt;Phone Verification (Twilio)&lt;/span&gt;&lt;/div&gt;" style="rounded=0;whiteSpace=wrap;html=1;fillColor=#3D454F;fontColor=#ffffff;strokeColor=none;shadow=0;verticalAlign=middle;align=center;fontSize=11;" vertex="1" parent="1">
                    <mxGeometry x="310" y="3317.5" width="200" height="40" as="geometry"/>
                </mxCell>
                <mxCell id="501" value="" style="endArrow=classic;html=1;labelBorderColor=default;fontFamily=Verdana;fontSize=12;fontColor=#000000;strokeColor=#006EAF;fillColor=#1ba1e2;" edge="1" parent="1">
                    <mxGeometry width="50" height="50" relative="1" as="geometry">
                        <mxPoint x="530" y="3315" as="sourcePoint"/>
                        <mxPoint x="620" y="3170" as="targetPoint"/>
                        <Array as="points">
                            <mxPoint x="550" y="3315"/>
                            <mxPoint x="550" y="3170"/>
                        </Array>
                    </mxGeometry>
                </mxCell>
                <mxCell id="502" value="" style="endArrow=classic;html=1;labelBorderColor=default;fontFamily=Verdana;fontSize=12;fontColor=#000000;strokeColor=#0098F2;fillColor=#1ba1e2;" edge="1" parent="1">
                    <mxGeometry width="50" height="50" relative="1" as="geometry">
                        <mxPoint x="1350" y="3190" as="sourcePoint"/>
                        <mxPoint x="-240" y="3340" as="targetPoint"/>
                        <Array as="points">
                            <mxPoint x="910" y="3190"/>
                            <mxPoint x="910" y="3650"/>
                            <mxPoint x="-240" y="3660"/>
                        </Array>
                    </mxGeometry>
                </mxCell>
                <mxCell id="503" value="&lt;font color=&quot;#45cecc&quot; face=&quot;Verdana&quot;&gt;&lt;b&gt;ProSpector&lt;/b&gt;&lt;/font&gt;" style="rounded=0;whiteSpace=wrap;html=1;fillColor=#1e2227;fontColor=#ffffff;strokeColor=#45CECC;shadow=0;verticalAlign=top;" vertex="1" parent="1">
                    <mxGeometry x="300" y="3490" width="220" height="140" as="geometry"/>
                </mxCell>
                <mxCell id="504" value="&lt;font face=&quot;Verdana&quot;&gt;Front end&lt;/font&gt;" style="rounded=0;whiteSpace=wrap;html=1;fillColor=#1e2227;fontColor=#ffffff;strokeColor=none;shadow=0;verticalAlign=top;" vertex="1" parent="1">
                    <mxGeometry x="310" y="3520" width="200" height="80" as="geometry"/>
                </mxCell>
                <mxCell id="505" value="&lt;font face=&quot;Verdana&quot;&gt;&amp;nbsp; &amp;nbsp; API:&lt;br&gt;&lt;span style=&quot;white-space: pre&quot;&gt;&#9;&lt;/span&gt;Remember me&lt;br&gt;&lt;/font&gt;" style="rounded=0;whiteSpace=wrap;html=1;fillColor=#3D454F;fontColor=#ffffff;strokeColor=none;shadow=0;verticalAlign=top;align=left;fontSize=11;" vertex="1" parent="1">
                    <mxGeometry x="310" y="3557.5" width="200" height="52.5" as="geometry"/>
                </mxCell>
                <mxCell id="506" value="" style="line;strokeWidth=1;html=1;rounded=0;shadow=0;glass=0;labelBackgroundColor=#CCE5FF;labelBorderColor=default;sketch=0;fontFamily=Verdana;fontColor=#FFFFFF;fillColor=#45CECC;gradientColor=none;gradientDirection=east;strokeColor=#FFFFFF;spacingTop=7;" vertex="1" parent="1">
                    <mxGeometry x="330" y="3510" width="160" height="10" as="geometry"/>
                </mxCell>
                <mxCell id="534" value="" style="endArrow=classic;html=1;labelBorderColor=default;fontFamily=Verdana;fontSize=12;fontColor=#000000;strokeColor=#0098F2;fillColor=#1ba1e2;" edge="1" parent="1">
                    <mxGeometry width="50" height="50" relative="1" as="geometry">
                        <mxPoint x="840" y="3180" as="sourcePoint"/>
                        <mxPoint x="1350" y="3180" as="targetPoint"/>
                        <Array as="points"/>
                    </mxGeometry>
                </mxCell>
                <mxCell id="537" value="&lt;font color=&quot;#000000&quot;&gt;&lt;b&gt;User&lt;/b&gt;&lt;/font&gt;" style="rounded=0;whiteSpace=wrap;html=1;shadow=0;glass=0;labelBackgroundColor=none;labelBorderColor=none;sketch=0;fontFamily=Verdana;fontSize=12;fontColor=#ffffff;strokeColor=#006EAF;strokeWidth=1;fillColor=#FFB366;gradientDirection=east;" vertex="1" parent="1">
                    <mxGeometry x="-220" y="3553.75" width="120" height="60" as="geometry"/>
                </mxCell>
                <mxCell id="538" value="" style="endArrow=classic;html=1;labelBorderColor=default;fontFamily=Verdana;fontSize=12;fontColor=#000000;strokeColor=#FFB366;fillColor=#1ba1e2;" edge="1" parent="1">
                    <mxGeometry width="50" height="50" relative="1" as="geometry">
                        <mxPoint x="-90" y="3600" as="sourcePoint"/>
                        <mxPoint x="290" y="3600.02" as="targetPoint"/>
                        <Array as="points"/>
                    </mxGeometry>
                </mxCell>
                <mxCell id="539" value="" style="endArrow=classic;html=1;labelBorderColor=default;fontFamily=Verdana;fontSize=12;fontColor=#000000;strokeColor=#FFB366;fillColor=#1ba1e2;" edge="1" parent="1">
                    <mxGeometry width="50" height="50" relative="1" as="geometry">
                        <mxPoint x="530" y="3590" as="sourcePoint"/>
                        <mxPoint x="790" y="3270" as="targetPoint"/>
                        <Array as="points">
                            <mxPoint x="790" y="3590"/>
                        </Array>
                    </mxGeometry>
                </mxCell>
                <mxCell id="540" value="" style="endArrow=classic;html=1;labelBorderColor=default;fontFamily=Verdana;fontSize=12;fontColor=#000000;strokeColor=#FF3333;fillColor=#1ba1e2;dashed=1;" edge="1" parent="1">
                    <mxGeometry width="50" height="50" relative="1" as="geometry">
                        <mxPoint x="150" y="3530" as="sourcePoint"/>
                        <mxPoint x="290" y="3580" as="targetPoint"/>
                        <Array as="points">
                            <mxPoint x="150" y="3580"/>
                        </Array>
                    </mxGeometry>
                </mxCell>
                <mxCell id="541" value="" style="endArrow=classic;html=1;labelBorderColor=default;fontFamily=Verdana;fontSize=12;fontColor=#000000;strokeColor=#FF3333;fillColor=#1ba1e2;dashed=1;" edge="1" parent="1">
                    <mxGeometry width="50" height="50" relative="1" as="geometry">
                        <mxPoint x="290" y="3570" as="sourcePoint"/>
                        <mxPoint x="160" y="3530" as="targetPoint"/>
                        <Array as="points">
                            <mxPoint x="160" y="3570"/>
                        </Array>
                    </mxGeometry>
                </mxCell>
                <mxCell id="542" value="" style="endArrow=classic;html=1;labelBorderColor=default;fontFamily=Verdana;fontSize=12;fontColor=#000000;strokeColor=#006EAF;fillColor=#1ba1e2;dashed=1;" edge="1" parent="1">
                    <mxGeometry width="50" height="50" relative="1" as="geometry">
                        <mxPoint x="530" y="3580" as="sourcePoint"/>
                        <mxPoint x="740" y="3270" as="targetPoint"/>
                        <Array as="points">
                            <mxPoint x="740" y="3580"/>
                        </Array>
                    </mxGeometry>
                </mxCell>
                <mxCell id="543" value="" style="endArrow=classic;html=1;labelBorderColor=default;fontFamily=Verdana;fontSize=12;fontColor=#000000;strokeColor=#006EAF;fillColor=#1ba1e2;dashed=1;" edge="1" parent="1">
                    <mxGeometry width="50" height="50" relative="1" as="geometry">
                        <mxPoint x="730" y="3270" as="sourcePoint"/>
                        <mxPoint x="530" y="3570" as="targetPoint"/>
                        <Array as="points">
                            <mxPoint x="730" y="3570"/>
                        </Array>
                    </mxGeometry>
                </mxCell>
                <mxCell id="545" value="&lt;font color=&quot;#45cecc&quot; face=&quot;Verdana&quot;&gt;&lt;b&gt;ProSpector&lt;/b&gt;&lt;/font&gt;" style="rounded=0;whiteSpace=wrap;html=1;fillColor=#1e2227;fontColor=#ffffff;strokeColor=#45CECC;shadow=0;verticalAlign=top;" vertex="1" parent="1">
                    <mxGeometry x="-30" y="3400" width="220" height="120" as="geometry"/>
                </mxCell>
                <mxCell id="546" value="&lt;font face=&quot;Verdana&quot;&gt;Front end&lt;/font&gt;" style="rounded=0;whiteSpace=wrap;html=1;fillColor=#1e2227;fontColor=#ffffff;strokeColor=none;shadow=0;verticalAlign=top;" vertex="1" parent="1">
                    <mxGeometry x="-20" y="3430" width="200" height="80" as="geometry"/>
                </mxCell>
                <mxCell id="547" value="" style="line;strokeWidth=1;html=1;rounded=0;shadow=0;glass=0;labelBackgroundColor=#CCE5FF;labelBorderColor=default;sketch=0;fontFamily=Verdana;fontColor=#FFFFFF;fillColor=#45CECC;gradientColor=none;gradientDirection=east;strokeColor=#FFFFFF;spacingTop=7;" vertex="1" parent="1">
                    <mxGeometry y="3420" width="160" height="10" as="geometry"/>
                </mxCell>
                <mxCell id="548" value="&lt;font face=&quot;Verdana&quot;&gt;&amp;nbsp; &amp;nbsp; API:&lt;br&gt;&lt;span style=&quot;white-space: pre&quot;&gt;&#9;&lt;/span&gt;Login&lt;br&gt;&lt;/font&gt;" style="rounded=0;whiteSpace=wrap;html=1;fillColor=#3D454F;fontColor=#ffffff;strokeColor=none;shadow=0;verticalAlign=top;align=left;fontSize=11;" vertex="1" parent="1">
                    <mxGeometry x="-20" y="3457.5" width="200" height="52.5" as="geometry"/>
                </mxCell>
                <mxCell id="549" value="" style="endArrow=classic;html=1;labelBorderColor=default;fontFamily=Verdana;fontSize=12;fontColor=#000000;strokeColor=#FF3333;fillColor=#1ba1e2;dashed=1;" edge="1" parent="1">
                    <mxGeometry width="50" height="50" relative="1" as="geometry">
                        <mxPoint x="530" y="3580" as="sourcePoint"/>
                        <mxPoint x="740" y="3270" as="targetPoint"/>
                        <Array as="points">
                            <mxPoint x="740" y="3580"/>
                        </Array>
                    </mxGeometry>
                </mxCell>
                <mxCell id="550" value="" style="endArrow=classic;html=1;labelBorderColor=default;fontFamily=Verdana;fontSize=12;fontColor=#000000;strokeColor=#FF3333;fillColor=#1ba1e2;dashed=1;" edge="1" parent="1">
                    <mxGeometry width="50" height="50" relative="1" as="geometry">
                        <mxPoint x="730" y="3270" as="sourcePoint"/>
                        <mxPoint x="530" y="3570" as="targetPoint"/>
                        <Array as="points">
                            <mxPoint x="730" y="3570"/>
                        </Array>
                    </mxGeometry>
                </mxCell>
                <mxCell id="551" value="&lt;font color=&quot;#000000&quot;&gt;&lt;b&gt;User&lt;/b&gt;&lt;/font&gt;" style="rounded=0;whiteSpace=wrap;html=1;shadow=0;glass=0;labelBackgroundColor=none;labelBorderColor=none;sketch=0;fontFamily=Verdana;fontSize=12;fontColor=#ffffff;strokeColor=none;strokeWidth=1;fillColor=#FF0000;gradientDirection=east;" vertex="1" parent="1">
                    <mxGeometry x="-220" y="3440" width="120" height="60" as="geometry"/>
                </mxCell>
                <mxCell id="552" value="" style="endArrow=classic;html=1;labelBorderColor=default;fontFamily=Verdana;fontSize=12;fontColor=#000000;strokeColor=#FF3333;fillColor=#1ba1e2;" edge="1" parent="1">
                    <mxGeometry width="50" height="50" relative="1" as="geometry">
                        <mxPoint x="-89.99999999999977" y="3486.25" as="sourcePoint"/>
                        <mxPoint x="-40" y="3486" as="targetPoint"/>
                        <Array as="points"/>
                    </mxGeometry>
                </mxCell>
            </root>
        </mxGraphModel>
    </diagram>
</mxfile>